<?xml version="1.0" encoding="utf-8"?>
<!-- Generator: Adobe Illustrator 16.0.3, SVG Export Plug-In . SVG Version: 6.00 Build 0)  -->
<!DOCTYPE svg PUBLIC "-//W3C//DTD SVG 1.1 Tiny//EN" "http://www.w3.org/Graphics/SVG/1.1/DTD/svg11-tiny.dtd">
<svg version="1.1" baseProfile="tiny" id="Layer_1" xmlns:sketch="http://www.bohemiancoding.com/sketch/ns"
	 xmlns="http://www.w3.org/2000/svg" xmlns:xlink="http://www.w3.org/1999/xlink" x="0px" y="0px" width="11px" height="23px"
	 viewBox="0 0 11 23" xml:space="preserve">
<title></title>
<path fill="#499534" d="M9,0H2c0,0-2,0-2,2.003v18.028c0,2.002,2,2.002,2,2.002h7c0,0,2,0,2-2.002V2.003C11,0,9,0,9,0z M4,1.221
	C4,1.097,4.06,1,4.133,1h2.734C6.939,1,7,1.099,7,1.221V1.28c0,0.125-0.06,0.221-0.133,0.221H4.133C4.06,1.501,4,1.402,4,1.28V1.221
	z M5.5,21.2c-0.552,0-1-0.448-1-1s0.448-1,1-1c0.553,0,1,0.448,1,1S6.053,21.2,5.5,21.2z M10,18.5H1v-16h9V18.5z"/>
<g display="none">
	<path id="path-1_1_" display="inline" fill="none" d="M0,2.003v18.028c0,2.002,2,2.002,2,2.002h7c0,0,2,0,2-2.002V2.003
		C11,0,9,0,9,0H2C2,0,0,0,0,2.003z M1,2.5v16h9v-16H1L1,2.5z M5.5,21.2c0.553,0,1-0.448,1-1s-0.447-1-1-1c-0.552,0-1,0.448-1,1
		S4.948,21.2,5.5,21.2L5.5,21.2z M4.133,1C4.06,1,4,1.097,4,1.221V1.28c0,0.122,0.06,0.221,0.133,0.221h2.734
		C6.94,1.501,7,1.404,7,1.28V1.221C7,1.099,6.939,1,6.867,1H4.133L4.133,1z"/>
</g>
</svg>
