<?xml version="1.0" encoding="utf-8"?>
<!-- Generator: Adobe Illustrator 16.0.3, SVG Export Plug-In . SVG Version: 6.00 Build 0)  -->
<!DOCTYPE svg PUBLIC "-//W3C//DTD SVG 1.1 Tiny//EN" "http://www.w3.org/Graphics/SVG/1.1/DTD/svg11-tiny.dtd">
<svg version="1.1" baseProfile="tiny" id="Layer_1" xmlns="http://www.w3.org/2000/svg" xmlns:xlink="http://www.w3.org/1999/xlink"
	 x="0px" y="0px" width="500px" height="500px" viewBox="0 0 500 500" xml:space="preserve">
<rect fill="#FFFFFF" width="500" height="500"/>
<g>
	<path fill="#3E3F3F" d="M279.886,271.945c0-21.179-20.685-37.012-44.563-53.35v74.987c7.293,5.095,14.123,10.034,20.105,15.011
		C272.626,298.953,279.886,285.606,279.886,271.945z"/>
	<path fill="#3E3F3F" d="M223.21,403.605c5.986,0,23.007,0.699,32.304-14.977c-16.14,0.026-43.409,0.184-63.051,0.533
		C190.601,390.4,207.305,403.605,223.21,403.605z"/>
	<path fill="#3E3F3F" d="M205.613,197.594c-2.271-1.744-4.498-3.475-6.604-5.23c-16.88,9.315-24.121,23.307-24.121,36.81
		c0,16.955,13.255,30.385,30.725,43.51V197.594z"/>
	<path fill="#3E3F3F" d="M235.323,331.286v24.332c0,22.21,3.87,26.223,23.081,26.552c1.149-3.597,1.696-7.308,1.696-10.872
		C260.1,355.606,249.43,342.868,235.323,331.286z"/>
	<path fill="#3E3F3F" d="M249.989,3.954c-136.143,0-246.514,110.37-246.514,246.524C3.476,386.628,113.847,497,249.989,497
		c136.165,0,246.533-110.372,246.533-246.521C496.522,114.324,386.154,3.954,249.989,3.954z M273.816,388.613
		c-9.778,13.479-26.775,21.587-48.617,21.587c-13.17,0-22.656-2.898-29.252-5.629c-15.913-6.584-25.396-18.003-25.396-29.581
		c0-9.649,6.268-17.838,17.368-17.838c7.71,0,14.316,4.17,16.926,10.973c0.54-3.368,0.767-7.438,0.767-12.507v-45.775
		c-0.059-0.039-0.125-0.084-0.181-0.12c-31.675-21.713-48.394-36.822-48.394-64.147c0-20.741,9.006-40.997,37.785-56.912
		c-14.316-13.021-23.306-27.014-23.306-46.139c0-30.544,22.663-51.773,58.034-51.773c13.021,0,22.661,3.06,29.249,5.628
		c15.755,6.591,25.254,18.176,25.254,29.75c0,9.479-6.107,17.681-17.367,17.681c-9.815,0-18.159-6.916-18.159-17.368
		c0-7.554,4.013-14.946,14.152-17.521c-4.501-9.484-22.369-11.896-31.85-11.896c-27.324,0-36.331,17.847-36.331,32.632
		c0,26.054,29.097,43.892,54.663,61.576c31.673,21.707,48.396,36.818,48.396,64.15c0,20.898-9.642,40.504-38.581,56.271
		c14.775,13.178,24.112,27.323,24.112,46.78c0,8.821-1.925,16.81-5.423,23.768h7.069c40.032,0,48.009-15.326,52.55-59.887h7.344
		c-0.634,6.722-0.938,15.946-0.938,26.272c0,7.976,0.621,24.702,2.181,40.971C324.547,388.631,295.155,388.613,273.816,388.613z"/>
</g>
</svg>
