<?xml version="1.0" encoding="utf-8"?>
<!-- Generator: Adobe Illustrator 16.0.3, SVG Export Plug-In . SVG Version: 6.00 Build 0)  -->
<!DOCTYPE svg PUBLIC "-//W3C//DTD SVG 1.1//EN" "http://www.w3.org/Graphics/SVG/1.1/DTD/svg11.dtd">
<svg version="1.1" id="Layer_1" xmlns="http://www.w3.org/2000/svg" xmlns:xlink="http://www.w3.org/1999/xlink" x="0px" y="0px"
	 width="500px" height="500px" viewBox="0 0 500 500" enable-background="new 0 0 500 500" xml:space="preserve">
<rect x="0" fill="#FFFFFF" width="500" height="500"/>
<g>
	<path d="M279.886,271.945c0-21.18-20.685-37.012-44.563-53.35v74.987c7.294,5.095,14.123,10.034,20.105,15.011
		C272.626,298.953,279.886,285.605,279.886,271.945z"/>
	<path d="M223.21,403.605c5.985,0,23.007,0.699,32.304-14.978c-16.14,0.026-43.409,0.185-63.051,0.533
		C190.601,390.4,207.305,403.605,223.21,403.605z"/>
	<path d="M205.613,197.594c-2.271-1.744-4.497-3.475-6.604-5.229c-16.88,9.315-24.121,23.307-24.121,36.81
		c0,16.955,13.255,30.385,30.725,43.51V197.594z"/>
	<path d="M235.323,331.286v24.332c0,22.21,3.87,26.223,23.081,26.552c1.149-3.597,1.696-7.309,1.696-10.872
		C260.1,355.605,249.43,342.868,235.323,331.286z"/>
	<path d="M249.989,3.954c-136.143,0-246.514,110.37-246.514,246.524C3.476,386.628,113.847,497,249.989,497
		c136.165,0,246.533-110.372,246.533-246.521C496.522,114.324,386.154,3.954,249.989,3.954z M273.816,388.613
		c-9.777,13.479-26.774,21.587-48.616,21.587c-13.171,0-22.656-2.898-29.253-5.63c-15.912-6.584-25.396-18.002-25.396-29.58
		c0-9.649,6.268-17.838,17.368-17.838c7.71,0,14.315,4.17,16.926,10.973c0.54-3.368,0.767-7.438,0.767-12.507v-45.775
		c-0.059-0.038-0.125-0.084-0.181-0.12c-31.675-21.713-48.394-36.822-48.394-64.146c0-20.741,9.006-40.997,37.784-56.912
		c-14.315-13.021-23.306-27.014-23.306-46.139c0-30.544,22.663-51.773,58.034-51.773c13.021,0,22.661,3.06,29.249,5.628
		c15.755,6.591,25.254,18.176,25.254,29.75c0,9.479-6.107,17.681-17.367,17.681c-9.814,0-18.159-6.916-18.159-17.368
		c0-7.554,4.014-14.946,14.152-17.521c-4.501-9.484-22.369-11.896-31.85-11.896c-27.324,0-36.331,17.847-36.331,32.632
		c0,26.054,29.097,43.892,54.663,61.576c31.673,21.707,48.396,36.818,48.396,64.151c0,20.897-9.642,40.504-38.581,56.271
		c14.775,13.178,24.112,27.323,24.112,46.78c0,8.82-1.925,16.81-5.423,23.768h7.068c40.032,0,48.009-15.326,52.55-59.887h7.345
		c-0.635,6.722-0.938,15.945-0.938,26.271c0,7.977,0.621,24.702,2.181,40.971C324.547,388.631,295.155,388.613,273.816,388.613z"/>
</g>
</svg>
